<svg xmlns="http://www.w3.org/2000/svg" width="20" height="20" viewBox="0 0 20 20">
  <g id="headphone" transform="translate(881 497.073)">
    <path id="Trazado_6" data-name="Trazado 6" d="M46.38,313.189h-.353a8.008,8.008,0,0,0-7.707-8.262,8.008,8.008,0,0,0-7.707,8.262h-.354a.634.634,0,0,0-.611.655v5.687a.634.634,0,0,0,.611.655h.788v3.5a.283.283,0,0,0,.272.292H36.1a1.176,1.176,0,0,0,1.124.948h2.2a1.243,1.243,0,0,0,0-2.479h-2.2a1.176,1.176,0,0,0-1.124.948H31.864a.283.283,0,0,1-.272-.292v-2.916h.788a.634.634,0,0,0,.611-.655v-5.687a.634.634,0,0,0-.611-.655h-.422a6.611,6.611,0,0,1,6.362-6.821,6.611,6.611,0,0,1,6.362,6.821h-.423a.634.634,0,0,0-.611.655v5.687a.634.634,0,0,0,.611.655H46.38a.634.634,0,0,0,.611-.655v-5.687a.634.634,0,0,0-.611-.655" transform="translate(-909.319 -802)" fill="#e5097f"/>
    <path id="Trazado_7" data-name="Trazado 7" d="M0,502.025a3.306,3.306,0,0,0,1.013,2.407v-4.814A3.306,3.306,0,0,0,0,502.025" transform="translate(-881 -987.337)" fill="#e5097f"/>
    <path id="Trazado_8" data-name="Trazado 8" d="M423.646,499.617v4.814a3.365,3.365,0,0,0,0-4.814" transform="translate(-1285.659 -987.336)" fill="#e5097f"/>
  </g>
</svg>
