<svg xmlns="http://www.w3.org/2000/svg" width="24" height="22" viewBox="0 0 24 22">
  <path id="icon" d="M-1584.675-253.865a2.348,2.348,0,0,1,.811-1.834,3.052,3.052,0,0,1,2.108-.722,2.958,2.958,0,0,1,2.061.711,2.455,2.455,0,0,1,.811,1.911,2.3,2.3,0,0,1-.787,1.778,3.056,3.056,0,0,1-2.132.733h-.023a2.9,2.9,0,0,1-2.062-.733A2.414,2.414,0,0,1-1584.675-253.865Zm.3,19.444v-14.844h5.143v14.844Zm13.135-14.844h-5.143q.047.711.046,4.422t-.046,10.422h5.143v-8.289a3.094,3.094,0,0,1,.185-1.2,3.256,3.256,0,0,1,.985-1.278,2.587,2.587,0,0,1,1.656-.522q2.595,0,2.595,3.356v7.933h5.143v-8.511a6.962,6.962,0,0,0-1.622-4.989,5.651,5.651,0,0,0-4.286-1.7,5.311,5.311,0,0,0-4.656,2.467" transform="translate(1584.676 256.421)" fill="#ff0977"/>
</svg>
