<svg xmlns="http://www.w3.org/2000/svg" width="50" height="50" viewBox="0 0 50 50">
  <path id="TW" d="M149.932,0a25,25,0,1,0,25,25,25,25,0,0,0-25-25M162.41,17.422a10.294,10.294,0,0,1-2.467,2.514.115.115,0,0,0-.055.111,12.576,12.576,0,0,1-.012,1.38,14.212,14.212,0,0,1-.58,3.225,14.807,14.807,0,0,1-2.716,5.139,13.824,13.824,0,0,1-5.205,3.978,14.284,14.284,0,0,1-3.105.956,15.474,15.474,0,0,1-1.634.218c-.541.043-1.083.064-1.626.054q-.742-.015-1.479-.1a14.684,14.684,0,0,1-4.34-1.2,14.488,14.488,0,0,1-1.743-.93l-.014-.011c.009-.032.033-.014.051-.013.341.031.682.054,1.025.056a10.811,10.811,0,0,0,1.628-.11,10.4,10.4,0,0,0,3.814-1.341,10.107,10.107,0,0,0,1-.676c.011-.008.02-.018.036-.033a5.156,5.156,0,0,1-2.965-1,5.041,5.041,0,0,1-1.832-2.508,5.258,5.258,0,0,0,1.157.088,5.148,5.148,0,0,0,1.154-.173,5.135,5.135,0,0,1-3.325-2.271,4.875,4.875,0,0,1-.788-2.746,5.205,5.205,0,0,0,2.316.63,5.015,5.015,0,0,1-2.249-3.723,4.884,4.884,0,0,1,.669-3.016l.157.183a14.666,14.666,0,0,0,7.864,4.736,14.756,14.756,0,0,0,1.911.307c.2.019.407.034.61.047.053,0,.056-.011.047-.058a5.064,5.064,0,0,1,4.135-6.06,5.107,5.107,0,0,1,4.6,1.471.088.088,0,0,0,.09.037A10.464,10.464,0,0,0,161.7,15.4l.061-.034a4.938,4.938,0,0,1-.515,1.1,5.086,5.086,0,0,1-.76.94,5.445,5.445,0,0,1-.965.745A9.975,9.975,0,0,0,161,17.871a10.24,10.24,0,0,0,1.429-.5c0,.025-.013.036-.022.049" transform="translate(-124.932)" fill="#2b2a29"/>
</svg>
