<svg xmlns="http://www.w3.org/2000/svg" width="24" height="20" viewBox="0 0 24 20">
  <path id="icon" d="M-1624.894-238.822a4.888,4.888,0,0,1-3.3-1.4,4.984,4.984,0,0,1-1.3-2.11,4.727,4.727,0,0,0,2.185-.084,4.96,4.96,0,0,1-3.129-2.22,5.086,5.086,0,0,1-.79-2.8,4.856,4.856,0,0,0,2.223.628,5.106,5.106,0,0,1-2.178-4.2,5.053,5.053,0,0,1,.67-2.521c.034.01.048.042.068.067a14.11,14.11,0,0,0,2.654,2.532,13.837,13.837,0,0,0,4.017,2.037,13.542,13.542,0,0,0,2.1.486c.411.062.824.1,1.238.131l.039,0c.039,0,.053-.013.046-.052-.014-.071-.028-.143-.041-.215a4.963,4.963,0,0,1-.052-1.377,5.034,5.034,0,0,1,3.411-4.311,4.736,4.736,0,0,1,1.833-.229,4.826,4.826,0,0,1,3.2,1.5.175.175,0,0,0,.187.057,9.811,9.811,0,0,0,2.93-1.147.178.178,0,0,1,.069-.034,3.779,3.779,0,0,1-.47,1.078,5.013,5.013,0,0,1-.723.935,5.828,5.828,0,0,1-.907.743,9.4,9.4,0,0,0,2.762-.767l.011.017c-.088.126-.173.253-.263.377a10.045,10.045,0,0,1-2.108,2.15.162.162,0,0,0-.069.156c.014.518.009,1.035-.028,1.552a14.79,14.79,0,0,1-.753,3.7,14.908,14.908,0,0,1-2.755,4.9,13.314,13.314,0,0,1-4.344,3.4,13.221,13.221,0,0,1-3.261,1.092,15.278,15.278,0,0,1-1.549.22,14.561,14.561,0,0,1-1.809.049,14.015,14.015,0,0,1-1.722-.167,13.75,13.75,0,0,1-4.285-1.439c-.337-.178-.666-.372-.987-.579a.16.16,0,0,1-.067-.056.344.344,0,0,1,.132,0,8.582,8.582,0,0,0,.961.054,9.735,9.735,0,0,0,5.839-1.914A2.958,2.958,0,0,0-1624.894-238.822Z" transform="translate(1632.139 254.467)" fill="#ff0977"/>
</svg>
