<svg xmlns="http://www.w3.org/2000/svg" width="150" height="150" viewBox="0 0 150 150">
  <g id="icon" transform="translate(-1270 -1477)">
    <rect id="bg" width="150" height="150" transform="translate(1270 1477)" fill="#fff"/>
    <g id="icon-2" data-name="icon" transform="translate(75.295 729.54)">
      <path id="Trazado_16" data-name="Trazado 16" d="M1296.653,836.64c-2.383-7.571-9.121-13.642-17.816-16.186a21.45,21.45,0,0,0-9.133-40.968,21.709,21.709,0,0,0-21.12,16.66l-.139.566a21.332,21.332,0,0,0,9.12,22.044,21.7,21.7,0,0,0,3.006,1.7c-8.7,2.544-15.433,8.615-17.815,16.186A43.6,43.6,0,0,0,1296.653,836.64Z" fill="#ff0977"/>
      <path id="Trazado_17" data-name="Trazado 17" d="M1303.2,768.4a47.217,47.217,0,0,0-66.985,0,47.675,47.675,0,0,0,5.721,72.186,47.225,47.225,0,0,0,55.542,0A47.672,47.672,0,0,0,1303.2,768.4Zm-2.561,64.714a44.363,44.363,0,0,1-3.983,3.531,43.6,43.6,0,0,1-53.9,0,43.958,43.958,0,0,1-3.984-65.673,43.606,43.606,0,0,1,61.864,0A44.08,44.08,0,0,1,1300.636,833.109Z" fill="#272624"/>
      <path id="Trazado_18" data-name="Trazado 18" d="M1215.276,835.527l10.8,1.84-8.024,7.493,1.6,10.888-9.574-5.35-9.816,4.889,2.107-10.8-7.662-7.866,10.876-1.325,5.08-9.751Z" fill="#ff0977"/>
      <path id="Trazado_19" data-name="Trazado 19" d="M1274.589,869.239l10.8,1.84-8.024,7.493,1.6,10.888-9.574-5.35L1259.573,889l2.107-10.8-7.662-7.866,10.876-1.325,5.08-9.751Z" fill="#ff0977"/>
      <path id="Trazado_20" data-name="Trazado 20" d="M1333.9,835.527l10.8,1.84-8.024,7.493,1.6,10.888-9.574-5.35-9.816,4.889,2.107-10.8-7.662-7.866,10.877-1.325,5.08-9.751Z" fill="#ff0977"/>
      <path id="Trazado_21" data-name="Trazado 21" d="M1236.212,835.674a47.216,47.216,0,0,0,66.985,0,47.672,47.672,0,0,0-5.722-72.186,47.223,47.223,0,0,0-55.542,0,47.675,47.675,0,0,0-5.721,72.185Zm2.56-64.713a44.231,44.231,0,0,1,3.984-3.531,43.593,43.593,0,0,1,53.9,0,43.958,43.958,0,0,1,3.984,65.673,43.606,43.606,0,0,1-61.864,0A44.08,44.08,0,0,1,1238.772,770.961Z" fill="#2b2a29"/>
    </g>
  </g>
</svg>
