<svg xmlns="http://www.w3.org/2000/svg" width="150" height="150" viewBox="0 0 150 150">
  <g id="icon" transform="translate(-500 -1477)">
    <rect id="bg" width="150" height="150" transform="translate(500 1477)" fill="#fff"/>
    <g id="icon-2" data-name="icon">
      <path id="Trazado_1" data-name="Trazado 1" d="M286.066,842.764c-3.026-9.569-11.58-17.244-22.621-20.459a27.1,27.1,0,0,0-11.6-51.785,27.7,27.7,0,0,0-12.5,2.982,27.236,27.236,0,0,0-14.312,18.078l-.176.714a26.889,26.889,0,0,0,11.58,27.865,27.636,27.636,0,0,0,3.817,2.147c-11.04,3.215-19.6,10.89-22.62,20.459A55.545,55.545,0,0,0,286.066,842.764Z" transform="translate(308.291 738.116)" fill="#831d53"/>
      <path id="Trazado_2" data-name="Trazado 2" d="M326.3,857.047l-33.439-33.439-2.529,2.528-4.454-4.453a60.151,60.151,0,1,0-11.347,10.708c.93-.675,1.84-1.389,2.739-2.123l4.465,4.465-2.529,2.529,33.44,33.439A9.655,9.655,0,0,0,326.3,857.047Zm-52.814-29.638a55.457,55.457,0,1,1,5.059-4.464A55.547,55.547,0,0,1,273.483,827.409Z" transform="translate(320.875 753.471)" fill="#2b2a29"/>
    </g>
  </g>
</svg>
