<svg xmlns="http://www.w3.org/2000/svg" width="150" height="150" viewBox="0 0 150 150">
  <g id="icon" transform="translate(-295 -4156)">
    <rect id="bg" width="150" height="150" transform="translate(295 4156)" fill="#f2e8ed"/>
    <g id="icon-2" data-name="icon">
      <path id="Trazado_45" data-name="Trazado 45" d="M902.846,800.422a55.408,55.408,0,0,0-7.878-15.147,58.452,58.452,0,0,0-27.589-20.4,59.826,59.826,0,0,0-16.719-3.323l3.591-3.132a1.275,1.275,0,0,0,0-1.827,1.4,1.4,0,0,0-1.891,0l-5.832,5.087c-.031.023-.057.05-.085.075l-.083.072-.014.016-.015.017a1.269,1.269,0,0,0,.029,1.793l.14.122a.185.185,0,0,0,.021.018l5.839,5.094a1.4,1.4,0,0,0,1.891,0,1.273,1.273,0,0,0,0-1.827l-3.334-2.908a56.569,56.569,0,0,1,28.69,9.838,54.4,54.4,0,0,1,6.359,5.11q1.524,1.42,2.936,2.946c.877.948,1.884,2.116,2.584,3a53.935,53.935,0,0,1,8.1,14.159,51.942,51.942,0,0,1,3.382,16.44q.045,1.1.045,2.2a1.34,1.34,0,0,0,2.674,0A54.848,54.848,0,0,0,902.846,800.422Z" transform="translate(-460.685 3399.778)" fill="#2b2a29"/>
      <path id="Trazado_46" data-name="Trazado 46" d="M815.01,898.792l-.14-.122c-.007-.005-.013-.012-.02-.018l-5.839-5.093a1.4,1.4,0,0,0-1.892,0,1.273,1.273,0,0,0,0,1.826l3.335,2.909a56.583,56.583,0,0,1-28.691-9.839,54.474,54.474,0,0,1-6.359-5.109q-1.523-1.421-2.935-2.946c-.878-.948-1.884-2.116-2.585-3a53.992,53.992,0,0,1-8.1-14.159A51.977,51.977,0,0,1,758.4,846.8c-.03-.732-.043-1.464-.044-2.2a1.341,1.341,0,0,0-2.675,0,54.885,54.885,0,0,0,2.839,17.417,55.448,55.448,0,0,0,7.878,15.147,58.464,58.464,0,0,0,27.589,20.4,59.9,59.9,0,0,0,16.719,3.323l-3.591,3.132a1.275,1.275,0,0,0,0,1.827,1.4,1.4,0,0,0,1.892,0l5.831-5.088a1.009,1.009,0,0,0,.086-.074l.082-.072.014-.016.016-.017A1.271,1.271,0,0,0,815.01,898.792Z" transform="translate(-460.685 3399.778)" fill="#2b2a29"/>
      <path id="Trazado_47" data-name="Trazado 47" d="M865.912,830.51c-19.455,0-35.227,15.235-35.227,34.028A33.326,33.326,0,0,0,840.8,888.384c-6.174,3.821-12.336,5.631-16.976,2.477,0,0,12.875,14.217,30.206,5.678a36.2,36.2,0,0,0,11.882,2.027c19.455,0,35.227-15.235,35.227-34.028S885.367,830.51,865.912,830.51Zm-1.38,41.927-.128.148q-5.364-.173-7.739-.173a24.22,24.22,0,0,0-3.55.247l.153-1.135a2.686,2.686,0,0,0,1.571-.58,2.107,2.107,0,0,0,.421-1.492l.026-10.363a2.006,2.006,0,0,0-.192-1.061.871.871,0,0,0-.754-.272l-.868.05-.051-.1.179-1.085q2.605.074,3.55.074,3.039,0,4.726-.062a29.428,29.428,0,0,0,2.937-.235l.077.149a23.958,23.958,0,0,0-.588,4.1l-1.226.1.051-1.061a2.231,2.231,0,0,0-.23-1.2,1.416,1.416,0,0,0-1-.445,21.74,21.74,0,0,0-2.682-.111,9.866,9.866,0,0,0-1.226.05.548.548,0,0,0-.434.234,1.741,1.741,0,0,0-.128.679l-.2,4.786,2.631.025a27.358,27.358,0,0,0,3.116-.271l.1.123-.357,1.455q-2.836-.074-3.576-.074a13.184,13.184,0,0,0-1.967.173l-.1,4.713a2.677,2.677,0,0,0,.129,1,.712.712,0,0,0,.523.382,6.426,6.426,0,0,0,1.367.1,16.313,16.313,0,0,0,3.052-.2,1.944,1.944,0,0,0,1.29-.79,5.355,5.355,0,0,0,.587-2.023l1.124-.123.077.123Q864.787,870.29,864.532,872.437Zm13.3-2.06a5.3,5.3,0,0,1-2.235,1.715,8.2,8.2,0,0,1-3.27.617,9.676,9.676,0,0,1-1.967-.186,9.478,9.478,0,0,1-1.468-.407,3.416,3.416,0,0,1-.575-.246l-.128-.247c.017-.1.052-.346.1-.74s.1-.909.14-1.543.064-1.3.064-2.01l1.149-.124a10.7,10.7,0,0,0,.256,2.739,1.824,1.824,0,0,0,.945,1.221,5.112,5.112,0,0,0,2.12.333,4.2,4.2,0,0,0,2.579-.727,2.35,2.35,0,0,0,.971-1.986,1.965,1.965,0,0,0-.523-1.333,5.086,5.086,0,0,0-1.239-1.012q-.716-.418-2.12-1.134a21.924,21.924,0,0,1-2.171-1.222,5.615,5.615,0,0,1-1.418-1.32,2.875,2.875,0,0,1-.575-1.776,3.823,3.823,0,0,1,.779-2.332,5.279,5.279,0,0,1,2.12-1.653,7.16,7.16,0,0,1,2.976-.605,12.332,12.332,0,0,1,1.89.136,11.621,11.621,0,0,1,1.379.284q.512.149.639.2l.077.148q-.026.148-.128.691t-.23,1.505q-.127.963-.2,1.974l-1,.1-.154-.123a3.387,3.387,0,0,0,.051-.457c.017-.238.026-.514.026-.826a2.119,2.119,0,0,0-.664-1.8,4.171,4.171,0,0,0-2.376-.493,3.754,3.754,0,0,0-2.311.678,2.041,2.041,0,0,0-.907,1.691,2.168,2.168,0,0,0,.881,1.714,14.316,14.316,0,0,0,2.593,1.592q1.66.815,2.529,1.344a6.264,6.264,0,0,1,1.532,1.321,2.753,2.753,0,0,1,.664,1.825A4.092,4.092,0,0,1,877.827,870.377Z" transform="translate(-460.685 3399.778)" fill="#ff0977"/>
      <path id="Trazado_48" data-name="Trazado 48" d="M820.571,821.048A33.329,33.329,0,0,0,830.685,797.2c0-18.793-15.772-34.028-35.227-34.028s-35.226,15.235-35.226,34.028S776,831.23,795.458,831.23a36.178,36.178,0,0,0,11.883-2.027c17.331,8.539,30.206-5.678,30.206-5.678C832.906,826.679,826.745,824.87,820.571,821.048Zm-29.055-16.63-.123.142q-5.145-.165-7.425-.166a23.17,23.17,0,0,0-3.406.237l.147-1.089a2.577,2.577,0,0,0,1.507-.556,2.021,2.021,0,0,0,.4-1.432l.024-9.942a1.924,1.924,0,0,0-.184-1.018.836.836,0,0,0-.723-.26l-.833.047-.048-.094.171-1.042q2.5.07,3.406.071,2.916,0,4.533-.059a28.207,28.207,0,0,0,2.818-.225l.074.142a23.109,23.109,0,0,0-.564,3.93l-1.176.094.049-1.018a2.146,2.146,0,0,0-.22-1.148,1.364,1.364,0,0,0-.956-.426,20.864,20.864,0,0,0-2.573-.106,9.659,9.659,0,0,0-1.176.047.528.528,0,0,0-.417.225,1.651,1.651,0,0,0-.122.651l-.2,4.592,2.525.024a26.2,26.2,0,0,0,2.989-.261l.1.119-.343,1.4q-2.719-.071-3.431-.071a12.7,12.7,0,0,0-1.887.166l-.1,4.521a2.589,2.589,0,0,0,.123.959.69.69,0,0,0,.5.367,6.2,6.2,0,0,0,1.311.094,15.629,15.629,0,0,0,2.929-.189,1.859,1.859,0,0,0,1.237-.758,5.128,5.128,0,0,0,.564-1.941l1.078-.118.073.118Q791.76,802.359,791.516,804.418Zm18.795-14.2a2.4,2.4,0,0,0-1.25.461,1.362,1.362,0,0,0-.416,1.03l-.344,13.3-.71.331q-2.132-3.2-4.154-6.1t-3.32-4.687q-1.3-1.787-1.642-2.26h-.122l-.123,10.107a1.2,1.2,0,0,0,.171.734.718.718,0,0,0,.589.213l1.249-.024.049.1-.22,1.065q-.27-.024-1.1-.059t-1.5-.036a11.831,11.831,0,0,0-1.335.083l-.944.107.123-1.089a1.977,1.977,0,0,0,1.127-.438,1.447,1.447,0,0,0,.392-1.053l.319-10.344a1.165,1.165,0,0,0-.454-1.042,3.9,3.9,0,0,0-1.678-.426l-.074-.119.2-.875c.147.016.466.039.956.071s.874.047,1.152.047c.343,0,.677-.012,1-.036s.54-.043.638-.059q1.812,2.723,3.639,5.326t3.05,4.285q1.226,1.68,1.544,2.13h.123v-9.587q0-1.017-.809-1.017l-.931.023-.049-.094.221-1.066c.162.016.473.036.931.059s.922.036,1.4.036a13.077,13.077,0,0,0,1.409-.083q.773-.082,1.017-.106Z" transform="translate(-460.685 3399.778)" fill="#ff0977"/>
    </g>
  </g>
</svg>
