<svg xmlns="http://www.w3.org/2000/svg" width="150" height="150" viewBox="0 0 150 150">
  <g id="icon" transform="translate(-1270 -1477)">
    <rect id="bg" width="150" height="150" transform="translate(1270 1477)" fill="#fff"/>
    <g id="icon-2" data-name="icon">
      <path id="Trazado_3" data-name="Trazado 3" d="M583.843,749.53a39.235,39.235,0,0,1,9.975-7.242c.047-.52.074-1.047.074-1.58A17.865,17.865,0,0,0,575.9,722.97a18.1,18.1,0,0,0-8.168,1.948,17.787,17.787,0,0,0-9.348,11.808l-.116.467a17.571,17.571,0,0,0,7.564,18.2,18.046,18.046,0,0,0,2.493,1.4c-7.211,2.1-12.8,7.114-14.775,13.364a36.09,36.09,0,0,0,18.792,7.52A39.162,39.162,0,0,1,583.843,749.53Z" transform="translate(733.379 774.693)" fill="#831d53"/>
      <path id="Trazado_4" data-name="Trazado 4" d="M654.912,828.233a17.7,17.7,0,0,0-7.575-33.827c-.119,0-.235.008-.354.011a39.347,39.347,0,0,1-17.627,17.949,17.642,17.642,0,0,0,7.913,14.464,18.113,18.113,0,0,0,2.493,1.4c-7.211,2.1-12.8,7.113-14.775,13.364a36.283,36.283,0,0,0,44.7,0C667.711,835.346,662.123,830.333,654.912,828.233Z" transform="translate(733.379 774.693)" fill="#831d53"/>
      <path id="Trazado_5" data-name="Trazado 5" d="M675.115,785.248A39.122,39.122,0,0,0,650.749,773.9a39.256,39.256,0,0,0-35.716-35.717,39.281,39.281,0,1,0-66.907,31.19,39.523,39.523,0,0,0,4.746,4.047,39.116,39.116,0,0,0,19.619,7.3,39.118,39.118,0,0,0,11.352,24.369,39.576,39.576,0,0,0,4.745,4.046,39.113,39.113,0,0,0,19.62,7.3,39.276,39.276,0,0,0,62.161,28.416,39.285,39.285,0,0,0,4.746-59.6ZM553.554,770.161a36.277,36.277,0,1,1,58.455-32.128,39.26,39.26,0,0,0-39.663,39.648A36.09,36.09,0,0,1,553.554,770.161ZM608.063,813.4a36.1,36.1,0,0,1-18.793-7.52,36.83,36.83,0,0,1-3.3-2.915,36.135,36.135,0,0,1-10.451-22.1c-.1-1-.147-2.006-.162-3.011a36.24,36.24,0,0,1,36.818-36.812c1,.016,2.007.065,3.007.163a36.276,36.276,0,0,1,32.547,32.548c.1,1,.148,2,.163,3.007a36.269,36.269,0,0,1-10.613,26.206,36.83,36.83,0,0,1-3.3,2.915,36.273,36.273,0,0,1-22.9,7.69Q609.564,813.547,608.063,813.4Zm64.928,25.283a36.347,36.347,0,0,1-51.308,0,36.136,36.136,0,0,1-10.451-22.1,39.253,39.253,0,0,0,39.663-39.66,36.281,36.281,0,0,1,22.1,61.761Z" transform="translate(733.379 774.693)" fill="#2b2a29"/>
      <path id="Trazado_6" data-name="Trazado 6" d="M672.428,750.437a48.994,48.994,0,0,0-6.639-13.214A50.122,50.122,0,0,0,655.47,726.53a48.815,48.815,0,0,0-27.017-10l3.025-2.732a1.127,1.127,0,0,0-1.593-1.594l-4.914,4.438a.9.9,0,0,0-.072.065l-.07.063-.012.014-.013.015a1.136,1.136,0,0,0,.025,1.564l.118.107.017.015,4.921,4.444a1.151,1.151,0,0,0,1.593,0,1.136,1.136,0,0,0,0-1.593l-2.809-2.538A46.728,46.728,0,0,1,658.2,731.835q1.283,1.239,2.473,2.57c.74.827,1.588,1.845,2.178,2.617a47.511,47.511,0,0,1,6.824,12.352,46.726,46.726,0,0,1,2.85,14.341q.038.958.038,1.916a1.127,1.127,0,0,0,2.253,0A49.417,49.417,0,0,0,672.428,750.437Z" transform="translate(733.379 774.693)" fill="#2b2a29"/>
      <path id="Trazado_7" data-name="Trazado 7" d="M598.412,836.253l-.118-.106-.017-.016-4.921-4.443a1.151,1.151,0,0,0-1.593,0,1.136,1.136,0,0,0,0,1.593l2.809,2.538a46.728,46.728,0,0,1-29.535-13.041q-1.282-1.239-2.473-2.57c-.74-.827-1.588-1.846-2.178-2.617a47.543,47.543,0,0,1-6.824-12.352,46.727,46.727,0,0,1-2.85-14.342q-.037-.957-.037-1.915a1.128,1.128,0,0,0-2.254,0,48.937,48.937,0,0,0,9.031,28.407,50.127,50.127,0,0,0,10.319,10.694,48.816,48.816,0,0,0,27.017,10l-3.025,2.732a1.127,1.127,0,0,0,1.593,1.594l4.914-4.438c.027-.02.048-.044.072-.065l.07-.063.012-.014.013-.015A1.137,1.137,0,0,0,598.412,836.253Z" transform="translate(733.379 774.693)" fill="#2b2a29"/>
      <path id="Trazado_8" data-name="Trazado 8" d="M611.552,763.654l-8.1,7.447a2.282,2.282,0,0,1-.957.526l-10.4,2.786a2.289,2.289,0,0,0-1.619,2.8l1.955,7.3a2.289,2.289,0,0,0,2.8,1.619h0a2.291,2.291,0,0,1,2.6,1.116l5,9.166a2.291,2.291,0,0,0,2.6,1.116l3.467-.929a2.291,2.291,0,0,0,1.418-3.309l-5.329-9.775.637-.171a2.3,2.3,0,0,1,1.092-.023l10.742,2.4a2.3,2.3,0,0,0,1.092-.023l4.563-1.223a2.291,2.291,0,0,0,1.619-2.805l-4.863-18.148a2.29,2.29,0,0,0-2.8-1.62l-4.563,1.223A2.288,2.288,0,0,0,611.552,763.654Z" transform="translate(733.379 774.693)" fill="#831d53"/>
      <rect id="Rectángulo_1" data-name="Rectángulo 1" width="8.763" height="1.826" rx="0.913" transform="translate(1358.943 1545.475) rotate(-15)" fill="#831d53"/>
      <rect id="Rectángulo_2" data-name="Rectángulo 2" width="8.763" height="1.826" rx="0.913" transform="matrix(0.5, -0.866, 0.866, 0.5, 1357.078, 1539.974)" fill="#831d53"/>
      <rect id="Rectángulo_3" data-name="Rectángulo 3" width="8.763" height="1.826" rx="0.913" transform="matrix(-0.866, -0.5, 0.5, -0.866, 1368.139, 1557.316)" fill="#831d53"/>
    </g>
  </g>
</svg>
