<svg xmlns="http://www.w3.org/2000/svg" width="150" height="150" viewBox="0 0 150 150">
  <g id="icon" transform="translate(-500 -1477)">
    <rect id="bg" width="150" height="150" transform="translate(500 1477)" fill="#fff"/>
    <g id="icon-2" data-name="icon">
      <path id="Trazado_9" data-name="Trazado 9" d="M858.968,906.85H908.02c0-9.017-6.894-16.677-16.493-19.473a18.769,18.769,0,0,0-8.033-35.872,19.19,19.19,0,0,0-8.662,2.066,18.868,18.868,0,0,0-9.914,12.522l-.122.495a18.628,18.628,0,0,0,8.021,19.3,19.21,19.21,0,0,0,2.644,1.487C865.862,890.173,858.968,897.833,858.968,906.85Z" transform="translate(-331.871 661.081)" fill="#2b2a29"/>
      <path id="Trazado_10" data-name="Trazado 10" d="M908.02,920.1h49.053c0-9.018-6.9-16.678-16.494-19.474a18.769,18.769,0,0,0-8.033-35.871,19.184,19.184,0,0,0-8.661,2.065,18.862,18.862,0,0,0-9.914,12.522l-.123.495a18.627,18.627,0,0,0,8.022,19.3,19.152,19.152,0,0,0,2.643,1.487C914.915,903.419,908.02,911.079,908.02,920.1Z" transform="translate(-331.871 661.081)" fill="#2b2a29"/>
      <path id="Trazado_11" data-name="Trazado 11" d="M874.317,930.326h56.689c0-10.421-7.967-19.274-19.061-22.505a21.691,21.691,0,0,0-9.283-41.456,22.18,22.18,0,0,0-10.011,2.387,21.8,21.8,0,0,0-11.457,14.472l-.141.571a21.527,21.527,0,0,0,9.27,22.307,22.053,22.053,0,0,0,3.055,1.719C882.285,911.052,874.317,919.905,874.317,930.326Z" transform="translate(-331.871 661.081)" fill="#ff0977"/>
      <path id="Trazado_12" data-name="Trazado 12" d="M976.139,890.917a68.989,68.989,0,0,1-16.067,44.354l4.068,4.068a74.983,74.983,0,0,0,0-96.846l-4.068,4.068A68.98,68.98,0,0,1,976.139,890.917Z" transform="translate(-331.871 661.081)" fill="#2b2a29"/>
      <path id="Trazado_13" data-name="Trazado 13" d="M906.874,821.652a68.979,68.979,0,0,1,44.356,16.067l4.068-4.068a74.983,74.983,0,0,0-96.846,0l4.068,4.068A68.987,68.987,0,0,1,906.874,821.652Z" transform="translate(-331.871 661.081)" fill="#2b2a29"/>
      <path id="Trazado_14" data-name="Trazado 14" d="M838.129,899.317a69.858,69.858,0,0,1-.524-8.4,68.985,68.985,0,0,1,16.073-44.361l-4.068-4.068a74.694,74.694,0,0,0-17.738,48.429,75.624,75.624,0,0,0,.943,11.869,74.689,74.689,0,0,0,16.8,36.547l4.078-4.078A68.937,68.937,0,0,1,838.129,899.317Z" transform="translate(-331.871 661.081)" fill="#2b2a29"/>
      <path id="Trazado_15" data-name="Trazado 15" d="M906.87,960.186a69.887,69.887,0,0,1-8.4-.525,68.926,68.926,0,0,1-35.942-15.56l-4.078,4.078A74.674,74.674,0,0,0,895,964.975a75.5,75.5,0,0,0,11.869.944A74.7,74.7,0,0,0,955.3,948.181l-4.067-4.068A68.992,68.992,0,0,1,906.87,960.186Z" transform="translate(-331.871 661.081)" fill="#2b2a29"/>
      <rect id="Rectángulo_4" data-name="Rectángulo 4" width="32.536" height="6.778" rx="3.389" transform="translate(641.936 1489.859) rotate(135)" fill="#ff0977"/>
      <rect id="Rectángulo_5" data-name="Rectángulo 5" width="32.536" height="6.778" rx="3.389" transform="translate(535.873 1595.921) rotate(135)" fill="#ff0977"/>
      <rect id="Rectángulo_6" data-name="Rectángulo 6" width="32.536" height="6.778" rx="3.389" transform="translate(637.143 1618.928) rotate(-135)" fill="#ff0977"/>
      <rect id="Rectángulo_7" data-name="Rectángulo 7" width="32.536" height="6.778" rx="3.389" transform="translate(531.08 1512.865) rotate(-135)" fill="#ff0977"/>
    </g>
  </g>
</svg>
