<svg xmlns="http://www.w3.org/2000/svg" width="150" height="140" viewBox="0 0 150 140">
  <g id="icon" transform="translate(-295 -4161)">
    <path id="Trazado_26" data-name="Trazado 26" d="M487.12,790.384l-15.893,7.5a2.3,2.3,0,0,1-3.066-1.129h0a2.344,2.344,0,0,1,1.116-3.1l15.893-7.495a2.3,2.3,0,0,1,3.066,1.129h0A2.344,2.344,0,0,1,487.12,790.384Z" transform="translate(-51.205 3399.778)" fill="#ff0977"/>
    <path id="Trazado_27" data-name="Trazado 27" d="M471.252,764.354l-6,16.666a2.3,2.3,0,0,1-2.958,1.394h0a2.341,2.341,0,0,1-1.379-2.991l6-16.665a2.3,2.3,0,0,1,2.957-1.4h0A2.342,2.342,0,0,1,471.252,764.354Z" transform="translate(-51.205 3399.778)" fill="#ff0977"/>
    <path id="Trazado_28" data-name="Trazado 28" d="M476.629,813.5l16.479,6.066a2.3,2.3,0,0,0,2.957-1.4h0a2.34,2.34,0,0,0-1.379-2.991l-16.479-6.065a2.3,2.3,0,0,0-2.957,1.394h0A2.341,2.341,0,0,0,476.629,813.5Z" transform="translate(-51.205 3399.778)" fill="#ff0977"/>
    <path id="Trazado_29" data-name="Trazado 29" d="M355.29,862.565l15.893-7.495a2.3,2.3,0,0,1,3.066,1.128h0a2.345,2.345,0,0,1-1.116,3.1l-15.893,7.495a2.3,2.3,0,0,1-3.066-1.129h0A2.344,2.344,0,0,1,355.29,862.565Z" transform="translate(-51.205 3399.778)" fill="#ff0977"/>
    <path id="Trazado_30" data-name="Trazado 30" d="M371.158,888.594l6-16.665a2.3,2.3,0,0,1,2.957-1.4h0a2.342,2.342,0,0,1,1.38,2.991l-6,16.666a2.3,2.3,0,0,1-2.958,1.394h0A2.341,2.341,0,0,1,371.158,888.594Z" transform="translate(-51.205 3399.778)" fill="#ff0977"/>
    <path id="Trazado_31" data-name="Trazado 31" d="M365.781,839.449,349.3,833.384a2.3,2.3,0,0,0-2.957,1.394h0a2.34,2.34,0,0,0,1.379,2.991l16.478,6.066a2.3,2.3,0,0,0,2.958-1.4h0A2.341,2.341,0,0,0,365.781,839.449Z" transform="translate(-51.205 3399.778)" fill="#ff0977"/>
    <path id="Trazado_32" data-name="Trazado 32" d="M434.575,825.995c-.029-.022-.045-.025,0,0Z" transform="translate(-51.205 3399.778)"/>
    <path id="Trazado_33" data-name="Trazado 33" d="M434.6,826.01a.239.239,0,0,0,.009-.024C434.616,825.974,434.611,825.989,434.6,826.01Z" transform="translate(-51.205 3399.778)"/>
    <path id="Trazado_34" data-name="Trazado 34" d="M407.508,826.116l-.016-.022C407.48,826.1,407.489,826.109,407.508,826.116Z" transform="translate(-51.205 3399.778)"/>
    <path id="Trazado_35" data-name="Trazado 35" d="M427.486,846.421,432.1,833.2c.766-2.2,1.492-4.41,2.293-6.593a4.056,4.056,0,0,1-.391.277,3.516,3.516,0,0,1-3.082.237,5.76,5.76,0,0,1-1.528-.852,10.887,10.887,0,0,0-1.1-.9,3.126,3.126,0,0,0-2.257-.407,4.649,4.649,0,0,0-2.123,1.337,3.938,3.938,0,0,1-5.62-.3,3.394,3.394,0,0,0-4.532-.431c-.429.346-.719.788-1.185,1.1a4.018,4.018,0,0,1-1.4.578,3.873,3.873,0,0,1-2.913-.427c-.052-.034-.1-.076-.151-.114.029.085.059.17.088.255l3.15,9.1q2.4,6.943,4.808,13.887l4.374,12.631q.33.956.661,1.909.8-2.3,1.6-4.593Z" transform="translate(-51.205 3399.778)" fill="#ff0977"/>
    <path id="Trazado_36" data-name="Trazado 36" d="M434.6,826.01h0Z" transform="translate(-51.205 3399.778)" fill="#fff"/>
    <path id="Trazado_37" data-name="Trazado 37" d="M407.85,825.984c-.207-.384.006.1-.185.155a.76.76,0,0,1-.157-.023l.139.181a2.777,2.777,0,0,0,.456.417c-.066-.194-.132-.388-.2-.581A1.144,1.144,0,0,0,407.85,825.984Z" transform="translate(-51.205 3399.778)" fill="#fff"/>
    <path id="Trazado_38" data-name="Trazado 38" d="M434.729,826.073c-.057-.026-.1-.046-.125-.061l0,.009c.029.033.043.081-.033.126a1.141,1.141,0,0,1,.033-.126h0c-.013.041-.028.083-.042.121-.058.155-.112.311-.169.466.111-.087.219-.178.325-.269C434.925,826.158,434.98,826.19,434.729,826.073Z" transform="translate(-51.205 3399.778)" fill="#fff"/>
    <path id="Trazado_39" data-name="Trazado 39" d="M434.575,825.995a.154.154,0,0,1,.026.025l0-.008Z" transform="translate(-51.205 3399.778)" fill="#fff"/>
    <path id="Trazado_40" data-name="Trazado 40" d="M434.6,826.012h0l0,.008h0Z" transform="translate(-51.205 3399.778)" fill="#fff"/>
    <path id="Trazado_41" data-name="Trazado 41" d="M407.444,826.031l.048.063v0Z" transform="translate(-51.205 3399.778)" fill="#fff"/>
    <path id="Trazado_42" data-name="Trazado 42" d="M434.6,826.021a1.141,1.141,0,0,0-.033.126C434.644,826.1,434.63,826.054,434.6,826.021Z" transform="translate(-51.205 3399.778)" fill="#fff"/>
    <path id="Trazado_43" data-name="Trazado 43" d="M419.314,786.14c-19.248.821-34.973,17.234-35.515,36.657a37.622,37.622,0,0,0,13.284,29.817,29.361,29.361,0,0,1,9.489,14.225v1.617H419.8l-.015-.045-.545-1.572-2.265-6.544q-2.411-6.958-4.819-13.917l-4.614-13.325c-.733-2.116-1.487-4.226-2.2-6.35a2.412,2.412,0,0,1,3.419-2.871,3.571,3.571,0,0,1,.852.738c-.06-.057-.1-.031.091.07a1.124,1.124,0,0,0,.769.074c.928-.151,1.415-1.08,2.183-1.565a6.109,6.109,0,0,1,6.3,0,5.919,5.919,0,0,1,1.23,1.074,1.444,1.444,0,0,0,.858.505c.824.122,1.352-.652,1.943-1.119a5.785,5.785,0,0,1,6.009-.821c.975.438,1.635,1.306,2.577,1.765a1.345,1.345,0,0,0,.874.166c.422-.1.72-.564,1.076-.791a2.433,2.433,0,0,1,3.593,2.768c-.05.193-.133.382-.2.569l-3.017,8.649q-2.453,7.031-4.9,14.059l-4.55,13.046-1.332,3.82-.564,1.617h13.566v-1.617a30.83,30.83,0,0,1,9.218-14.225,37.5,37.5,0,0,0,13.285-28.723C458.626,802.554,441,785.046,419.314,786.14Zm25.472,23.125q-.033-.367-.083-.734a16.726,16.726,0,0,0-17.139-14.544c-.295.009-.589.014-.885.039-1,.084-1-1.5,0-1.581a18.136,18.136,0,0,1,6.382.6,18.578,18.578,0,0,1,13.288,16.224C446.442,810.279,444.878,810.269,444.786,809.265Z" transform="translate(-51.205 3399.778)" fill="#ff0977"/>
    <rect id="Rectángulo_8" data-name="Rectángulo 8" width="29.551" height="1.617" transform="translate(355.367 4276.284)" fill="#2b2a29"/>
    <rect id="Rectángulo_9" data-name="Rectángulo 9" width="29.551" height="1.617" transform="translate(355.367 4269.815)" fill="#2b2a29"/>
    <path id="Trazado_44" data-name="Trazado 44" d="M406.572,890.827a4.882,4.882,0,0,0,4.88,4.924h1.48a9,9,0,0,0,16.56,0h1.751a4.882,4.882,0,0,0,4.88-4.924V879.741H406.572Z" transform="translate(-51.205 3399.778)" fill="#2b2a29"/>
    <rect id="Rectángulo_10" data-name="Rectángulo 10" width="29.551" height="1.617" transform="translate(355.367 4273.05)" fill="#2b2a29"/>
  </g>
</svg>
