<svg xmlns="http://www.w3.org/2000/svg" width="150" height="150" viewBox="0 0 150 150">
  <g id="icon" transform="translate(-295 -4156)">
    <rect id="bg" width="150" height="150" transform="translate(295 4156)" fill="#f2e8ed"/>
    <g id="icon-2" data-name="icon" transform="translate(-1161 1846)">
      <path id="Trazado_59" data-name="Trazado 59" d="M987.443,843.724l-.031-.3a73.59,73.59,0,0,0-19.659-42.153,74.558,74.558,0,0,0-40.738-22.355c-.571-.107-1.143-.209-1.72-.3-2.3-.38-4.661-.658-7.007-.823-1.776-.125-3.585-.187-5.375-.187a74.788,74.788,0,0,0-75,74.475,73.626,73.626,0,0,0,13.84,43.119l.26.357h0A75.353,75.353,0,0,0,961.993,908.39a74.339,74.339,0,0,0,25.056-44.976q.142-.924.262-1.856c.159-1.245.289-2.508.384-3.756.145-1.9.218-3.827.218-5.73A75.188,75.188,0,0,0,987.443,843.724Zm-1.728-.1.022.224-.01-.1-.013-.133q-.169-1.452-.4-2.889Q985.545,842.164,985.715,843.619Zm.275,14.052c-.093,1.22-.219,2.454-.375,3.671q-.115.909-.256,1.812a72.616,72.616,0,0,1-24.481,43.939,73.641,73.641,0,0,1-107.709-12.868c12.842-5.917,5.411-16.615.391-33.61l-2.126-17.095c28.5-37.657,48.331-58.846,21.4-52.373a73.16,73.16,0,0,1,40.083-11.841c1.75,0,3.518.061,5.254.183,2.293.162,4.6.433,6.848.8q.844.141,1.682.3c.066.012.132.028.2.041,1.04,28.62,16,35.982,5.377,50.266-4.676,12.794-30.323-11.565-37.092,9.208s8.378.51,11.8,11.966,7.376,55.216,21.8,55.216-.345-43.608,16.884-55.217c16.978-11.439,22.7,10.645,40.125-7.716a73.452,73.452,0,0,1,.416,7.716C986.2,853.932,986.132,855.815,985.99,857.671Z" transform="translate(618.086 1533.451)" fill="#2b2a29"/>
      <path id="Trazado_60" data-name="Trazado 60" d="M895.723,891.145c-7.428-1.594-8.88-5.538-8.88-5.538s-8.988,1.431-7.845,5.594l1.143,4.162c1.536,5.09,6.452,10.266,9.262,7.77S903.151,892.739,895.723,891.145Z" transform="translate(618.086 1533.451)" fill="#2b2a29"/>
      <path id="Trazado_61" data-name="Trazado 61" d="M898.845,819.181c3.5-6.7,7.717-7.051,7.717-7.051s.973-8.986-3.372-8.986h-4.345c-5.35.133-11.672,3.481-9.986,6.829S895.342,825.877,898.845,819.181Z" transform="translate(618.086 1533.451)" fill="#2b2a29"/>
      <path id="Trazado_62" data-name="Trazado 62" d="M874.487,785.845a9.363,9.363,0,0,0-18.725,0,9.217,9.217,0,0,0,2.092,5.855h0l7.272,11.726L872.4,791.7h0A9.217,9.217,0,0,0,874.487,785.845Zm-9.362,5.855a5.855,5.855,0,1,1,5.9-5.855A5.876,5.876,0,0,1,865.125,791.7Z" transform="translate(618.086 1533.451)" fill="#ff0977"/>
      <path id="Trazado_63" data-name="Trazado 63" d="M904.651,801a9.363,9.363,0,0,0-18.725,0,9.21,9.21,0,0,0,2.092,5.855h0l7.271,11.726,7.272-11.726h0A9.215,9.215,0,0,0,904.651,801Zm-9.363,5.855a5.855,5.855,0,1,1,5.9-5.855A5.876,5.876,0,0,1,895.288,806.851Z" transform="translate(618.086 1533.451)" fill="#ff0977"/>
      <path id="Trazado_64" data-name="Trazado 64" d="M928.547,863.067a10.946,10.946,0,0,0-21.892,0,10.773,10.773,0,0,0,2.446,6.846h0l8.5,13.71,8.5-13.71h0A10.778,10.778,0,0,0,928.547,863.067ZM917.6,869.913a6.846,6.846,0,1,1,6.894-6.846A6.87,6.87,0,0,1,917.6,869.913Z" transform="translate(618.086 1533.451)" fill="#ff0977"/>
      <path id="Trazado_65" data-name="Trazado 65" d="M952.29,807.718a12.666,12.666,0,0,0-25.332,0,12.465,12.465,0,0,0,2.83,7.921h0l9.837,15.864,9.837-15.864h0A12.47,12.47,0,0,0,952.29,807.718Zm-12.666,7.921a7.921,7.921,0,1,1,7.977-7.921A7.95,7.95,0,0,1,939.624,815.639Z" transform="translate(618.086 1533.451)" fill="#ff0977"/>
      <path id="Trazado_66" data-name="Trazado 66" d="M893.67,871.269a12.341,12.341,0,0,0-24.681,0,12.146,12.146,0,0,0,2.757,7.717h0l9.585,15.456,9.584-15.456h0A12.146,12.146,0,0,0,893.67,871.269Zm-12.34,7.717a7.717,7.717,0,1,1,7.772-7.717A7.744,7.744,0,0,1,881.33,878.986Z" transform="translate(618.086 1533.451)" fill="#ff0977"/>
    </g>
  </g>
</svg>
